{
    "asset" : {
        "generator" : "Khronos glTF Blender I/O v3.3.27",
        "version" : "2.0"
    },
    "extensionsUsed" : [
        "KHR_materials_specular",
        "KHR_materials_ior"
    ],
    "scene" : 0,
    "scenes" : [
        {
            "name" : "Scene",
            "nodes" : [
                0
            ]
        }
    ],
    "nodes" : [
        {
            "mesh" : 0,
            "name" : "TQQ_ARD-node.001",
            "rotation" : [
                0,
                -0.7071068286895752,
                0,
                0.7071068286895752
            ]
        }
    ],
    "materials" : [
        {
            "doubleSided" : true,
            "extensions" : {
                "KHR_materials_specular" : {
                    "specularColorFactor" : [
                        0,
                        0,
                        0
                    ]
                },
                "KHR_materials_ior" : {
                    "ior" : 0
                }
            },
            "name" : "TQQ_ARD_front.001",
            "pbrMetallicRoughness" : {
                "baseColorTexture" : {
                    "index" : 0
                },
                "metallicFactor" : 0,
                "roughnessFactor" : 0.5
            }
        },
        {
            "doubleSided" : true,
            "extensions" : {
                "KHR_materials_specular" : {
                    "specularColorFactor" : [
                        0,
                        0,
                        0
                    ]
                },
                "KHR_materials_ior" : {
                    "ior" : 0
                }
            },
            "name" : "TQQ_ARD_back",
            "pbrMetallicRoughness" : {
                "baseColorFactor" : [
                    0.27543866634368896,
                    0.17657031118869781,
                    0.1072319969534874,
                    1
                ],
                "metallicFactor" : 0,
                "roughnessFactor" : 0.5
            }
        },
        {
            "doubleSided" : true,
            "extensions" : {
                "KHR_materials_specular" : {
                    "specularColorFactor" : [
                        0,
                        0,
                        0
                    ]
                },
                "KHR_materials_ior" : {
                    "ior" : 0
                }
            },
            "name" : "TQQ_ARD_edge",
            "pbrMetallicRoughness" : {
                "baseColorTexture" : {
                    "index" : 1
                },
                "metallicFactor" : 0,
                "roughnessFactor" : 0.5
            }
        }
    ],
    "meshes" : [
        {
            "name" : "TQQ_ARD-geom.001",
            "primitives" : [
                {
                    "attributes" : {
                        "POSITION" : 0,
                        "NORMAL" : 1,
                        "TEXCOORD_0" : 2
                    },
                    "indices" : 3,
                    "material" : 0
                },
                {
                    "attributes" : {
                        "POSITION" : 4,
                        "NORMAL" : 5,
                        "TEXCOORD_0" : 6
                    },
                    "indices" : 7,
                    "material" : 1
                },
                {
                    "attributes" : {
                        "POSITION" : 8,
                        "NORMAL" : 9,
                        "TEXCOORD_0" : 10
                    },
                    "indices" : 11,
                    "material" : 2
                }
            ]
        }
    ],
    "textures" : [
        {
            "sampler" : 0,
            "source" : 0
        },
        {
            "sampler" : 0,
            "source" : 1
        }
    ],
    "images" : [
        {
            "bufferView" : 4,
            "mimeType" : "image/jpeg",
            "name" : "8-01"
        },
        {
            "bufferView" : 13,
            "mimeType" : "image/png",
            "name" : "TQQ_ARD-I1"
        }
    ],
    "accessors" : [
        {
            "bufferView" : 0,
            "componentType" : 5126,
            "count" : 2402,
            "max" : [
                0.4990648627281189,
                0.20680679380893707,
                0.19299888610839844
            ],
            "min" : [
                -0.5038752555847168,
                0.002837657928466797,
                -0.20993679761886597
            ],
            "type" : "VEC3"
        },
        {
            "bufferView" : 1,
            "componentType" : 5126,
            "count" : 2402,
            "type" : "VEC3"
        },
        {
            "bufferView" : 2,
            "componentType" : 5126,
            "count" : 2402,
            "type" : "VEC2"
        },
        {
            "bufferView" : 3,
            "componentType" : 5123,
            "count" : 4035,
            "type" : "SCALAR"
        },
        {
            "bufferView" : 5,
            "componentType" : 5126,
            "count" : 2004,
            "max" : [
                0.49709635972976685,
                0.202345609664917,
                0.18853813409805298
            ],
            "min" : [
                -0.5019031763076782,
                0.002837657928466797,
                -0.20480665564537048
            ],
            "type" : "VEC3"
        },
        {
            "bufferView" : 6,
            "componentType" : 5126,
            "count" : 2004,
            "type" : "VEC3"
        },
        {
            "bufferView" : 7,
            "componentType" : 5126,
            "count" : 2004,
            "type" : "VEC2"
        },
        {
            "bufferView" : 8,
            "componentType" : 5123,
            "count" : 4035,
            "type" : "SCALAR"
        },
        {
            "bufferView" : 9,
            "componentType" : 5126,
            "count" : 1977,
            "max" : [
                0.4990648627281189,
                0.20680679380893707,
                0.19299888610839844
            ],
            "min" : [
                -0.5038752555847168,
                0.002837657928466797,
                -0.20993679761886597
            ],
            "type" : "VEC3"
        },
        {
            "bufferView" : 10,
            "componentType" : 5126,
            "count" : 1977,
            "type" : "VEC3"
        },
        {
            "bufferView" : 11,
            "componentType" : 5126,
            "count" : 1977,
            "type" : "VEC2"
        },
        {
            "bufferView" : 12,
            "componentType" : 5123,
            "count" : 4344,
            "type" : "SCALAR"
        }
    ],
    "bufferViews" : [
        {
            "buffer" : 0,
            "byteLength" : 28824,
            "byteOffset" : 0,
            "target" : 34962
        },
        {
            "buffer" : 0,
            "byteLength" : 28824,
            "byteOffset" : 28824,
            "target" : 34962
        },
        {
            "buffer" : 0,
            "byteLength" : 19216,
            "byteOffset" : 57648,
            "target" : 34962
        },
        {
            "buffer" : 0,
            "byteLength" : 8070,
            "byteOffset" : 76864,
            "target" : 34963
        },
        {
            "buffer" : 0,
            "byteLength" : 2515644,
            "byteOffset" : 84936
        },
        {
            "buffer" : 0,
            "byteLength" : 24048,
            "byteOffset" : 2600580,
            "target" : 34962
        },
        {
            "buffer" : 0,
            "byteLength" : 24048,
            "byteOffset" : 2624628,
            "target" : 34962
        },
        {
            "buffer" : 0,
            "byteLength" : 16032,
            "byteOffset" : 2648676,
            "target" : 34962
        },
        {
            "buffer" : 0,
            "byteLength" : 8070,
            "byteOffset" : 2664708,
            "target" : 34963
        },
        {
            "buffer" : 0,
            "byteLength" : 23724,
            "byteOffset" : 2672780,
            "target" : 34962
        },
        {
            "buffer" : 0,
            "byteLength" : 23724,
            "byteOffset" : 2696504,
            "target" : 34962
        },
        {
            "buffer" : 0,
            "byteLength" : 15816,
            "byteOffset" : 2720228,
            "target" : 34962
        },
        {
            "buffer" : 0,
            "byteLength" : 8688,
            "byteOffset" : 2736044,
            "target" : 34963
        },
        {
            "buffer" : 0,
            "byteLength" : 2655,
            "byteOffset" : 2744732
        }
    ],
    "samplers" : [
        {
            "magFilter" : 9729,
            "minFilter" : 9987
        }
    ],
    "buffers" : [
        {
            "byteLength" : 2747388,
            "uri" : "data:application/octet-stream;base64,"
        }
    ]
}
